:SAMPLES-PER-SECOND 30
:FULLY-SPECIFIED
:DEGREES
492
root  3.46761 18.3486 -58.4031 -119.99 6.95985 -178.26
RightUpLeg  -63.6175 2.53227 3.23374
RightLeg  111.781 20.011 -9.7308
RightFoot  0.435463 0.203695 -1.7779
RightToes  -5.82073e-011 -3.18055e-015 -2.98177e-016
Spine  33.4767 -3.64531 7.65757
Spine1  -7.56998 -1.11759 -7.84215
HEad  -14.6571 0.708713 3.20328
LeftShoulder1  -3.88251e-019 9.70628e-020 -3.87848e-018
LeftArm  -2.99666 -26.4924 -61.2685
LeftForeArm  -6.05632 -1.25756 -6.60352
LeftHand  -9.76822 -9.28853 69.7974
RightShoulder  1.47987 6.00064 6.39972
RightArm  0.823454 21.8386 75.4978
RightForeArm  6.89905 2.46542 -7.88407
RightHand  -10.6753 9.51283 -71.7805
LeftUpLeg  -61.3486 3.03912 -10.9104
LeftLeg  116.517 -15.0478 3.41781
LeftFoot  -18.7753 -0.875977 -16.5077
LeftToes  -2.27483e-011 -5.53417e-011 9.36564e-012
493
root  3.48543 18.3521 -58.3074 -120.705 7.28107 -178.256
RightUpLeg  -63.208 3.15474 2.16906
RightLeg  113.515 18.8842 -6.82678
RightFoot  -0.936948 0.272168 -2.56637
RightToes  -5.82073e-011 -3.18055e-015 -2.98177e-016
Spine  33.8446 -3.751 7.59714
Spine1  -6.83191 -1.15262 -7.79987
HEad  -14.9977 1.16115 3.10202
LeftShoulder1  -3.88251e-019 9.70628e-020 -3.87848e-018
LeftArm  -3.04897 -26.4838 -60.479
LeftForeArm  -6.65244 -1.25251 -6.576
LeftHand  -9.66843 -9.29673 69.2134
RightShoulder  1.39816 5.86145 5.94588
RightArm  1.09318 22.4611 76.1573
RightForeArm  6.90916 2.5671 -8.06417
RightHand  -10.6447 9.51283 -71.6234
LeftUpLeg  -60.8638 3.24841 -10.8795
LeftLeg  116.959 -14.7623 2.84672
LeftFoot  -18.6328 -0.851699 -16.443
LeftToes  -2.27483e-011 -5.53417e-011 9.36564e-012
494
root  3.51562 18.3319 -58.2 -121.236 7.49054 -178.255
RightUpLeg  -63.1927 3.47255 1.61373
RightLeg  114.611 18.3485 -5.49475
RightFoot  -1.26019 0.305004 -2.94386
RightToes  -5.82073e-011 -3.18055e-015 -2.98177e-016
Spine  34.0842 -3.87289 7.66637
Spine1  -6.26997 -1.20596 -7.65667
HEad  -15.1171 1.70445 3.08349
LeftShoulder1  -3.88251e-019 9.70628e-020 -3.87848e-018
LeftArm  -3.17449 -26.3718 -59.6274
LeftForeArm  -7.32504 -1.25049 -6.56281
LeftHand  -9.56659 -9.31304 68.5845
RightShoulder  1.33749 5.74315 5.62168
RightArm  1.30214 22.9106 76.7781
RightForeArm  6.92864 3.04288 -8.36182
RightHand  -10.5316 9.45028 -71.268
LeftUpLeg  -60.6683 3.36802 -10.6276
LeftLeg  117.587 -14.3841 2.11315
LeftFoot  -18.4033 -0.808089 -16.2375
LeftToes  -2.27483e-011 -5.53417e-011 9.36564e-012
495
root  3.56191 18.3091 -58.0644 -121.694 7.58968 -178.299
RightUpLeg  -63.2883 3.50573 1.61627
RightLeg  115.192 18.4351 -5.54419
RightFoot  -1.20724 0.31994 -3.07626
RightToes  -5.82073e-011 -3.18055e-015 -2.98177e-016
Spine  34.3791 -3.92985 7.6915
Spine1  -5.93941 -1.26256 -7.16347
HEad  -15.1945 2.16764 3.04437
LeftShoulder1  -3.88251e-019 9.70628e-020 -3.87848e-018
LeftArm  -3.21579 -26.0269 -58.8046
LeftForeArm  -8.13734 -1.25967 -6.60631
LeftHand  -9.45 -9.22999 68.2406
RightShoulder  1.31103 5.70333 5.4635
RightArm  1.51193 23.2635 77.1937
RightForeArm  7.11235 3.92167 -8.75729
RightHand  -10.396 9.36995 -70.8556
LeftUpLeg  -60.6287 3.42737 -10.2707
LeftLeg  118.288 -13.998 1.39418
LeftFoot  -18.296 -0.779132 -15.9518
LeftToes  -2.27483e-011 -5.53417e-011 9.36564e-012
496
root  3.62359 18.2914 -57.8913 -122.114 7.77917 -178.384
RightUpLeg  -63.4494 3.60346 1.78005
RightLeg  115.71 18.7244 -5.98207
RightFoot  -1.41438 0.30367 -2.96538
RightToes  -5.82073e-011 -3.18055e-015 -2.98177e-016
Spine  34.791 -3.87201 7.5506
Spine1  -5.82633 -1.28238 -6.48026
HEad  -15.3549 2.47999 3.11834
LeftShoulder1  -3.88251e-019 9.70628e-020 -3.87848e-018
LeftArm  -3.43434 -25.4147 -58.1018
LeftForeArm  -8.93047 -1.23638 -6.47618
LeftHand  -9.27803 -9.08679 67.8009
RightShoulder  1.2673 5.58864 5.2601
RightArm  1.60001 23.3204 77.5053
RightForeArm  7.56205 5.35906 -9.36128
RightHand  -10.3138 9.35182 -70.4902
LeftUpLeg  -60.628 3.58816 -10.1006
LeftLeg  118.926 -13.7033 0.86759
LeftFoot  -18.4412 -0.776907 -15.4699
LeftToes  -2.27483e-011 -5.53417e-011 9.36564e-012
